<?xml version="1.0" encoding="UTF-8" standalone="no"?>
<!DOCTYPE svg PUBLIC "-//W3C//DTD SVG 1.1//EN" "http://www.w3.org/Graphics/SVG/1.1/DTD/svg11.dtd">
<svg width="100%" height="100%" viewBox="0 0 500 500" version="1.1" xmlns="http://www.w3.org/2000/svg" xmlns:xlink="http://www.w3.org/1999/xlink" xml:space="preserve" style="fill-rule:evenodd;clip-rule:evenodd;stroke-linejoin:round;stroke-miterlimit:1.41421;">
    <g transform="matrix(3.29436,0,0,3.29436,-405.777,-228.792)">
        <circle cx="199.06" cy="145.337" r="75.887" style="fill:rgb(235,235,235);"/>
    </g>
    <g transform="matrix(0.26665,0,0,0.26665,263.154,262.708)">
        <path d="M486.409,406.591L430.388,406.591C430.422,406.062 430.695,405.618 430.695,405.089L430.695,350.877C430.695,336.737 419.235,325.277 405.095,325.277L349.074,325.277C349.108,324.748 349.381,324.304 349.381,323.767L349.381,269.555C349.381,255.415 337.921,243.955 323.781,243.955L188.245,243.955C174.105,243.955 162.645,255.415 162.645,269.555L162.645,323.767C162.645,324.305 162.918,324.748 162.952,325.277L106.931,325.277C92.791,325.277 81.331,336.737 81.331,350.877L81.331,405.089C81.331,405.627 81.604,406.07 81.638,406.591L25.608,406.591C11.468,406.591 0.008,418.051 0.008,432.191L0.008,486.403C0.008,500.543 11.468,512.003 25.608,512.003L486.408,512.003C500.548,512.003 512.008,500.543 512.008,486.403L512.008,432.191C512.009,418.052 500.548,406.591 486.409,406.591ZM405.094,350.877L405.094,405.089L269.559,405.089L269.559,350.877L405.094,350.877ZM188.245,269.555L323.771,269.555L323.771,323.767L188.245,323.767L188.245,269.555ZM106.931,350.877L242.457,350.877L242.457,405.089L106.931,405.089L106.931,350.877ZM161.135,486.404L25.608,486.404L25.608,432.192L161.134,432.192L161.134,486.404L161.135,486.404ZM323.772,486.404L188.245,486.404L188.245,432.192L323.771,432.192L323.771,486.404L323.772,486.404ZM486.409,486.404L350.882,486.404L350.882,432.192L486.408,432.192L486.408,486.404L486.409,486.404Z" style="fill:rgb(44,47,51);fill-rule:nonzero;"/>
    </g>
    <g transform="matrix(0.587225,0,0,0.587225,90.6635,99.6701)">
        <path d="M469.711,163.187C464.078,163.187 459.512,167.753 459.512,173.386L459.512,176.446C459.512,182.079 464.078,186.645 469.711,186.645C475.344,186.645 479.91,182.079 479.91,176.446L479.91,173.386C479.91,167.753 475.344,163.187 469.711,163.187Z" style="fill:rgb(0,173,238);fill-rule:nonzero;"/>
    </g>
    <g transform="matrix(0.587225,0,0,0.587225,90.6635,99.6701)">
        <path d="M477.871,300.768L477.871,291.697L483.443,291.697C489.076,291.697 493.642,287.131 493.642,281.498L493.642,244.781C493.642,239.148 489.076,234.582 483.443,234.582L479.911,234.582L479.911,208.064C479.911,202.431 475.345,197.865 469.712,197.865C464.079,197.865 459.513,202.431 459.513,208.064L459.513,234.582L452.921,234.582C447.288,234.582 442.722,239.148 442.722,244.781L442.722,281.498C442.722,287.131 447.288,291.697 452.921,291.697L457.473,291.697L457.473,309.036C457.473,314.669 462.039,319.235 467.672,319.235C471.801,319.235 475.159,322.594 475.159,326.722C475.159,330.851 471.8,334.209 467.672,334.209C464.875,334.209 460.185,333.547 460.185,329.109C460.185,323.476 455.619,318.91 449.986,318.91C444.353,318.91 439.787,323.476 439.787,329.109C439.787,343.884 451.515,354.607 467.673,354.607C483.049,354.607 495.559,342.098 495.559,326.721C495.557,314.944 488.217,304.848 477.871,300.768ZM473.243,271.299L463.118,271.299L463.118,254.98L473.243,254.98L473.243,271.299Z" style="fill:rgb(0,173,238);fill-rule:nonzero;"/>
    </g>
    <g transform="matrix(0.587225,0,0,0.587225,90.6635,99.6701)">
        <path d="M485.914,129.963L171.894,35.26L171.894,10.2C171.894,4.566 167.328,0 161.695,0L122.938,0C117.305,0 112.739,4.566 112.739,10.199L112.739,38.63L19.409,132.539C16.505,135.461 15.644,139.843 17.226,143.647C18.808,147.45 22.523,149.929 26.643,149.929L112.74,149.929L112.74,416C112.737,416.005 112.734,416.009 112.731,416.013L64.795,496.587C62.92,499.739 62.882,503.655 64.694,506.843C66.507,510.031 69.893,512.001 73.56,512.001L250.428,512.001L250.428,512C254.621,512 258.387,509.434 259.92,505.531C261.454,501.629 260.442,497.185 257.37,494.33L171.893,414.886L171.893,149.928L482.969,149.928C488.027,149.928 492.321,146.221 493.059,141.217C493.797,136.213 490.756,131.424 485.914,129.963ZM112.738,129.53L51.158,129.53L112.738,67.568L112.738,129.53ZM112.739,491.602L91.495,491.602L112.739,455.894L112.739,491.602ZM151.496,491.602L133.137,491.602L133.137,149.928L151.496,149.928L151.496,491.602ZM151.496,129.53L133.137,129.53L133.137,53.036L151.496,53.036L151.496,129.53ZM151.496,32.637L133.137,32.637L133.137,20.398L151.496,20.398L151.496,32.637ZM171.894,442.734L224.472,491.601L171.894,491.601L171.894,442.734ZM171.894,56.566L216.086,69.893L171.894,114.085L171.894,56.566ZM185.298,129.53L233.089,81.74L280.879,129.53L185.298,129.53ZM303.973,123.776L264.776,84.578L325.005,102.743L303.973,123.776ZM327.067,129.53L347.171,109.426L413.829,129.53L327.067,129.53Z" style="fill:rgb(44,47,51);fill-rule:nonzero;"/>
    </g>
</svg>
