<?xml version="1.0" encoding="UTF-8" standalone="no"?>
<!DOCTYPE svg PUBLIC "-//W3C//DTD SVG 1.1//EN" "http://www.w3.org/Graphics/SVG/1.1/DTD/svg11.dtd">
<svg width="100%" height="100%" viewBox="0 0 500 500" version="1.1" xmlns="http://www.w3.org/2000/svg" xmlns:xlink="http://www.w3.org/1999/xlink" xml:space="preserve" style="fill-rule:evenodd;clip-rule:evenodd;stroke-linejoin:round;stroke-miterlimit:1.41421;">
    <g transform="matrix(3.29436,0,0,3.29436,-405.777,-228.792)">
        <circle cx="199.06" cy="145.337" r="75.887" style="fill:rgb(235,235,235);"/>
    </g>
    <g transform="matrix(0.26665,0,0,0.26665,263.154,262.708)">
        <path d="M486.409,406.591L430.388,406.591C430.422,406.062 430.695,405.618 430.695,405.089L430.695,350.877C430.695,336.737 419.235,325.277 405.095,325.277L349.074,325.277C349.108,324.748 349.381,324.304 349.381,323.767L349.381,269.555C349.381,255.415 337.921,243.955 323.781,243.955L188.245,243.955C174.105,243.955 162.645,255.415 162.645,269.555L162.645,323.767C162.645,324.305 162.918,324.748 162.952,325.277L106.931,325.277C92.791,325.277 81.331,336.737 81.331,350.877L81.331,405.089C81.331,405.627 81.604,406.07 81.638,406.591L25.608,406.591C11.468,406.591 0.008,418.051 0.008,432.191L0.008,486.403C0.008,500.543 11.468,512.003 25.608,512.003L486.408,512.003C500.548,512.003 512.008,500.543 512.008,486.403L512.008,432.191C512.009,418.052 500.548,406.591 486.409,406.591ZM405.094,350.877L405.094,405.089L269.559,405.089L269.559,350.877L405.094,350.877ZM188.245,269.555L323.771,269.555L323.771,323.767L188.245,323.767L188.245,269.555ZM106.931,350.877L242.457,350.877L242.457,405.089L106.931,405.089L106.931,350.877ZM161.135,486.404L25.608,486.404L25.608,432.192L161.134,432.192L161.134,486.404L161.135,486.404ZM323.772,486.404L188.245,486.404L188.245,432.192L323.771,432.192L323.771,486.404L323.772,486.404ZM486.409,486.404L350.882,486.404L350.882,432.192L486.408,432.192L486.408,486.404L486.409,486.404Z" style="fill:rgb(44,47,51);fill-rule:nonzero;"/>
    </g>
    <g transform="matrix(0.587225,0,0,0.587225,90.6635,99.6701)">
        <path d="M469.711,163.187C464.078,163.187 459.512,167.753 459.512,173.386L459.512,176.446C459.512,182.079 464.078,186.645 469.711,186.645C475.344,186.645 479.91,182.079 479.91,176.446L479.91,173.386C479.91,167.753 475.344,163.187 469.711,163.187Z" style="fill:rgb(0,173,238);fill-rule:nonzero;"/>
    </g>
    <g transform="matrix(0.587225,0,0,0.587225,90.6635,99.6701)">
        <path d="M477.871,300.768L477.871,291.697L483.443,291.697C489.076,291.697 493.642,287.131 493.642,281.498L493.642,244.781C493.642,239.148 489.076,234.582 483.443,234.582L479.911,234.582L479.911,208.064C479.911,202.431 475.345,197.865 469.712,197.865C464.079,197.865 459.513,202.431 459.513,208.064L459.513,234.582L452.921,234.582C447.288,234.582 442.722,239.148 442.722,244.781L442.722,281.498C442.722,287.131 447.288,291.697 452.921,291.697L457.473,291.697L457.473,309.036C457.473,314.669 462.039,319.235 467.672,319.235C471.801,319.235 475.159,322.594 475.159,326.722C475.159,330.851 471.8,334.209 467.672,334.209C464.875,334.209 460.185,333.547 460.185,329.109C460.185,323.476 455.619,318.91 449.986,318.91C444.353,318.91 439.787,323.476 439.787,329.109C439.787,343.884 451.515,354.607 467.673,354.607C483.049,354.607 495.559,342.098 495.559,326.721C495.557,314.944 488.217,304.848 477.871,300.768ZM473.243,271.299L463.118,271.299L463.118,254.98L473.243,254.98L473.243,271.299Z" style="fill:rgb(0,173,238);fill-rule:nonzero;"/>
    </g>
    <g transform="matrix(0.587225,0,0,0.587225,90.6635,99.6701)">
        <path d="M485.914,129.963L171.894,35.26L171.894,10.2C171.894,4.566 167.328,0 161.695,0L122.938,0C117.305,0 112.739,4.566 112.739,10.199L112.739,38.63L19.409,132.539C16.505,135.461 15.644,139.843 17.226,143.647C18.808,147.45 22.523,149.929 26.643,149.929L112.74,149.929L112.74,416C112.737,416.005 112.734,416.009 112.731,416.013L64.795,496.587C62.92,499.739 62.882,503.655 64.694,506.843C66.507,510.031 69.893,512.001 73.56,512.001L250.428,512.001L250.428,512C254.621,512 258.387,509.434 259.92,505.531C261.454,501.629 260.442,497.185 257.37,494.33L171.893,414.886L171.893,149.928L482.969,149.928C488.027,149.928 492.321,146.221 493.059,141.217C493.797,136.213 490.756,131.424 485.914,129.963ZM112.738,129.53L51.158,129.53L112.738,67.568L112.738,129.53ZM112.739,491.602L91.495,491.602L112.739,455.894L112.739,491.602ZM151.496,491.602L133.137,491.602L133.137,149.928L151.496,149.928L151.496,491.602ZM151.496,129.53L133.137,129.53L133.137,53.036L151.496,53.036L151.496,129.53ZM151.496,32.637L133.137,32.637L133.137,20.398L151.496,20.398L151.496,32.637ZM171.894,442.734L224.472,491.601L171.894,491.601L171.894,442.734ZM171.894,56.566L216.086,69.893L171.894,114.085L171.894,56.566ZM185.298,129.53L233.089,81.74L280.879,129.53L185.298,129.53ZM303.973,123.776L264.776,84.578L325.005,102.743L303.973,123.776ZM327.067,129.53L347.171,109.426L413.829,129.53L327.067,129.53Z" style="fill:rgb(44,47,51);fill-rule:nonzero;"/>
    </g>
    <g transform="matrix(3.29436,0,0,3.29436,-405.777,-228.792)">
        <circle cx="199.06" cy="145.337" r="75.887" style="fill:rgb(235,235,235);"/>
    </g>
    <g transform="matrix(3.29436,0,0,3.29436,-1039.37,-593.356)">
        <rect x="418.31" y="240.997" width="5.535" height="7.64" style="fill:rgb(0,173,238);"/>
    </g>
    <g transform="matrix(3.29436,0,0,3.29436,-1039.37,-536.738)">
        <rect x="418.31" y="240.997" width="5.535" height="7.64" style="fill:rgb(0,173,238);"/>
    </g>
    <g transform="matrix(3.29436,0,0,3.29436,-1039.72,-482.03)">
        <rect x="418.31" y="240.997" width="5.535" height="7.64" style="fill:rgb(0,173,238);"/>
    </g>
    <g transform="matrix(3.29436,0,0,3.29436,-1234.41,-593.046)">
        <rect x="418.31" y="240.997" width="5.535" height="7.64" style="fill:rgb(0,173,238);"/>
    </g>
    <g transform="matrix(0.543866,0,0,0.543866,110.77,110.77)">
        <path d="M366.933,477.867L128,477.867C123.29,477.867 119.467,481.69 119.467,486.4L119.467,503.467C119.467,508.177 123.29,512 128,512C132.71,512 136.533,508.177 136.533,503.467L136.533,494.934L366.933,494.934C371.643,494.934 375.466,491.111 375.466,486.401C375.466,481.691 371.644,477.867 366.933,477.867Z" style="fill:rgb(44,47,51);fill-rule:nonzero;"/>
    </g>
    <g transform="matrix(0.543866,0,0,0.543866,110.77,110.77)">
        <path d="M187.733,213.333C187.733,218.043 191.556,221.866 196.266,221.866L230.4,221.866C235.11,221.866 238.933,218.043 238.933,213.333L238.933,162.133C238.933,157.423 235.11,153.6 230.4,153.6L196.267,153.6C191.557,153.6 187.734,157.423 187.734,162.133L187.734,213.333L187.733,213.333ZM204.8,170.667L221.867,170.667L221.867,204.8L204.8,204.8L204.8,170.667Z" style="fill:rgb(44,47,51);fill-rule:nonzero;"/>
    </g>
    <g transform="matrix(0.543866,0,0,0.543866,110.77,110.77)">
        <path d="M110.933,102.4L8.533,102.4C3.823,102.4 0,106.223 0,110.933L0,281.6C0,286.31 3.823,290.133 8.533,290.133C13.243,290.133 17.066,286.31 17.066,281.6L17.066,119.467L110.933,119.467C115.643,119.467 119.466,115.644 119.466,110.934C119.466,106.224 115.644,102.4 110.933,102.4Z" style="fill:rgb(44,47,51);fill-rule:nonzero;"/>
    </g>
    <g transform="matrix(0.543866,0,0,0.543866,110.77,110.77)">
        <path d="M409.6,418.133C409.6,422.843 413.423,426.666 418.133,426.666L452.266,426.666C456.976,426.666 460.799,422.843 460.799,418.133L460.799,366.933C460.799,362.223 456.976,358.4 452.266,358.4L418.133,358.4C413.423,358.4 409.6,362.223 409.6,366.933L409.6,418.133ZM426.667,375.467L443.734,375.467L443.734,409.6L426.667,409.6L426.667,375.467Z" style="fill:rgb(44,47,51);fill-rule:nonzero;"/>
    </g>
    <g transform="matrix(0.543866,0,0,0.543866,110.77,110.77)">
        <path d="M42.667,307.2C0.486,307.2 0,417.024 0,418.133C0,438.741 14.686,455.97 34.133,459.938L34.133,503.467C34.133,508.177 37.956,512 42.666,512C47.376,512 51.199,508.177 51.199,503.467L51.199,459.938C70.646,455.97 85.332,438.741 85.332,418.133C85.333,417.024 84.847,307.2 42.667,307.2ZM42.667,443.733C28.553,443.733 17.067,432.247 17.067,418.133C17.067,375.62 28.485,324.266 42.667,324.266C56.849,324.266 68.267,375.62 68.267,418.133C68.267,432.247 56.781,443.733 42.667,443.733Z" style="fill:rgb(44,47,51);fill-rule:nonzero;"/>
    </g>
    <g transform="matrix(0.543866,0,0,0.543866,110.77,110.77)">
        <path d="M93.867,256L59.733,256C55.023,256 51.2,259.823 51.2,264.533L51.2,281.6C51.2,286.31 55.023,290.133 59.733,290.133C64.443,290.133 68.266,286.31 68.266,281.6L68.266,273.067L85.333,273.067L85.333,315.734C85.333,320.444 89.156,324.267 93.866,324.267C98.576,324.267 102.399,320.444 102.399,315.734L102.399,264.534C102.4,259.823 98.577,256 93.867,256Z" style="fill:rgb(44,47,51);fill-rule:nonzero;"/>
    </g>
    <g transform="matrix(0.543866,0,0,0.543866,110.77,110.77)">
        <path d="M418.133,221.867L452.266,221.867C456.976,221.867 460.799,218.044 460.799,213.334L460.799,162.134C460.799,157.424 456.976,153.601 452.266,153.601L418.133,153.601C413.423,153.601 409.6,157.424 409.6,162.134L409.6,213.334C409.6,218.044 413.423,221.867 418.133,221.867ZM426.667,170.667L443.734,170.667L443.734,204.8L426.667,204.8L426.667,170.667Z" style="fill:rgb(44,47,51);fill-rule:nonzero;"/>
    </g>
    <g transform="matrix(0.543866,0,0,0.543866,110.77,110.77)">
        <path d="M93.867,153.6L59.733,153.6C55.023,153.6 51.2,157.423 51.2,162.133L51.2,213.333C51.2,218.043 55.023,221.866 59.733,221.866L93.866,221.866C98.576,221.866 102.399,218.043 102.399,213.333L102.399,162.133C102.4,157.423 98.577,153.6 93.867,153.6ZM85.333,204.8L68.267,204.8L68.267,170.667L85.334,170.667L85.334,204.8L85.333,204.8Z" style="fill:rgb(44,47,51);fill-rule:nonzero;"/>
    </g>
    <g transform="matrix(0.543866,0,0,0.543866,110.77,110.77)">
        <path d="M273.067,213.333C273.067,218.043 276.89,221.866 281.6,221.866L315.733,221.866C320.443,221.866 324.266,218.043 324.266,213.333L324.266,162.133C324.266,157.423 320.443,153.6 315.733,153.6L281.6,153.6C276.89,153.6 273.067,157.423 273.067,162.133L273.067,213.333ZM290.133,170.667L307.2,170.667L307.2,204.8L290.133,204.8L290.133,170.667Z" style="fill:rgb(44,47,51);fill-rule:nonzero;"/>
    </g>
    <g transform="matrix(0.543866,0,0,0.543866,110.77,110.77)">
        <path d="M503.467,102.4L401.067,102.4C396.357,102.4 392.534,106.223 392.534,110.933C392.534,115.643 396.357,119.466 401.067,119.466L494.934,119.466L494.934,462.37C492.255,461.414 489.413,460.8 486.401,460.8C484.925,460.8 483.457,460.928 482.015,461.184C476.127,450.577 464.923,443.733 452.268,443.733C439.613,443.733 428.409,450.577 422.521,461.184C421.079,460.928 419.611,460.8 418.135,460.8C404.021,460.8 392.535,472.286 392.535,486.4C392.535,500.514 404.021,512 418.135,512L486.4,512C500.514,512 512,500.514 512,486.4L512,110.933C512,106.223 508.177,102.4 503.467,102.4ZM486.4,494.933L418.133,494.933C413.431,494.933 409.6,491.102 409.6,486.4C409.6,481.698 413.431,477.867 418.133,477.867C419.771,477.867 421.324,478.336 422.758,479.258C425.096,480.76 428.015,481.033 430.592,479.992C433.169,478.951 435.072,476.715 435.695,474.01C437.496,466.236 444.314,460.8 452.267,460.8C460.22,460.8 467.038,466.236 468.839,474.01C469.462,476.715 471.365,478.951 473.942,479.992C476.511,481.033 479.437,480.76 481.776,479.258C487.331,475.674 494.934,480.06 494.934,486.4C494.933,491.102 491.102,494.933 486.4,494.933Z" style="fill:rgb(44,47,51);fill-rule:nonzero;"/>
    </g>
    <g transform="matrix(0.543866,0,0,0.543866,110.77,110.77)">
        <path d="M281.6,119.467L315.733,119.467C320.443,119.467 324.266,115.644 324.266,110.934L324.266,59.734C324.266,55.024 320.443,51.201 315.733,51.201L281.6,51.201C276.89,51.201 273.067,55.024 273.067,59.734L273.067,110.934C273.067,115.644 276.89,119.467 281.6,119.467ZM290.133,68.267L307.2,68.267L307.2,102.4L290.133,102.4L290.133,68.267Z" style="fill:rgb(44,47,51);fill-rule:nonzero;"/>
    </g>
    <g transform="matrix(0.543866,0,0,0.543866,110.77,110.77)">
        <path d="M273.067,315.733C273.067,320.443 276.89,324.266 281.6,324.266L315.733,324.266C320.443,324.266 324.266,320.443 324.266,315.733L324.266,264.533C324.266,259.823 320.443,256 315.733,256L281.6,256C276.89,256 273.067,259.823 273.067,264.533L273.067,315.733ZM290.133,273.067L307.2,273.067L307.2,307.2L290.133,307.2L290.133,273.067Z" style="fill:rgb(44,47,51);fill-rule:nonzero;"/>
    </g>
    <g transform="matrix(0.543866,0,0,0.543866,110.77,110.77)">
        <path d="M196.267,119.467L230.4,119.467C235.11,119.467 238.933,115.644 238.933,110.934L238.933,59.734C238.933,55.024 235.11,51.201 230.4,51.201L196.267,51.201C191.557,51.201 187.734,55.024 187.734,59.734L187.734,110.934C187.733,115.644 191.556,119.467 196.267,119.467ZM204.8,68.267L221.867,68.267L221.867,102.4L204.8,102.4L204.8,68.267Z" style="fill:rgb(44,47,51);fill-rule:nonzero;"/>
    </g>
    <g transform="matrix(0.543866,0,0,0.543866,110.77,110.77)">
        <path d="M249.941,412.075C248.405,413.696 247.466,415.915 247.466,418.134C247.466,420.353 248.405,422.571 249.941,424.193C251.562,425.729 253.781,426.668 256,426.668C258.219,426.668 260.437,425.729 262.059,424.193C263.595,422.572 264.534,420.353 264.534,418.134C264.534,415.915 263.595,413.697 262.059,412.075C258.816,408.917 253.184,408.917 249.941,412.075Z" style="fill:rgb(44,47,51);fill-rule:nonzero;"/>
    </g>
    <g transform="matrix(0.543866,0,0,0.543866,110.77,110.77)">
        <path d="M187.733,315.733C187.733,320.443 191.556,324.266 196.266,324.266L230.4,324.266C235.11,324.266 238.933,320.443 238.933,315.733L238.933,264.533C238.933,259.823 235.11,256 230.4,256L196.267,256C191.557,256 187.734,259.823 187.734,264.533L187.734,315.733L187.733,315.733ZM204.8,273.067L221.867,273.067L221.867,307.2L204.8,307.2L204.8,273.067Z" style="fill:rgb(44,47,51);fill-rule:nonzero;"/>
    </g>
    <g transform="matrix(0.543866,0,0,0.543866,110.77,110.77)">
        <path d="M170.667,366.933C170.667,371.643 174.49,375.466 179.2,375.466L204.8,375.466L204.8,452.266C204.8,456.976 208.623,460.799 213.333,460.799C218.043,460.799 221.866,456.976 221.866,452.266L221.866,375.466L290.133,375.466L290.133,452.266C290.133,456.976 293.956,460.799 298.666,460.799C303.376,460.799 307.199,456.976 307.199,452.266L307.199,375.466L332.799,375.466C337.509,375.466 341.332,371.643 341.332,366.933C341.332,362.223 337.509,358.4 332.799,358.4L179.2,358.4C174.49,358.4 170.667,362.223 170.667,366.933Z" style="fill:rgb(44,47,51);fill-rule:nonzero;"/>
    </g>
    <g transform="matrix(0.543866,0,0,0.543866,110.77,110.77)">
        <path d="M409.6,315.733C409.6,320.443 413.423,324.266 418.133,324.266L452.266,324.266C456.976,324.266 460.799,320.443 460.799,315.733L460.799,264.533C460.799,259.823 456.976,256 452.266,256L418.133,256C413.423,256 409.6,259.823 409.6,264.533L409.6,315.733ZM426.667,273.067L443.734,273.067L443.734,307.2L426.667,307.2L426.667,273.067Z" style="fill:rgb(44,47,51);fill-rule:nonzero;"/>
    </g>
    <g transform="matrix(0.543866,0,0,0.543866,110.77,110.77)">
        <path d="M366.933,0L145.067,0C140.357,0 136.534,3.823 136.534,8.533L136.534,452.266C136.534,456.976 140.357,460.799 145.067,460.799C149.777,460.799 153.6,456.976 153.6,452.266L153.6,17.066L358.4,17.066L358.4,452.266C358.4,456.976 362.223,460.799 366.933,460.799C371.643,460.799 375.466,456.976 375.466,452.266L375.466,8.533C375.467,3.823 371.644,0 366.933,0Z" style="fill:rgb(44,47,51);fill-rule:nonzero;"/>
    </g>
    <g transform="matrix(3.29436,0,0,3.29436,-405.777,-228.792)">
        <circle cx="199.06" cy="145.337" r="75.887" style="fill:rgb(235,235,235);"/>
    </g>
    <g transform="matrix(0.935489,0,0,0.935489,76.7485,127.263)">
        <path d="M364.398,122.002L357.602,122.002L357.602,108.189C359.848,108.326 362.113,108.4 364.398,108.4C367.715,108.4 370.398,105.712 370.398,102.4C370.398,99.087 367.715,96.4 364.398,96.4C318.301,96.4 280.801,64.638 280.801,25.599L280.801,6.4C280.801,3.087 278.113,0.4 274.801,0.4C271.488,0.4 268.801,3.087 268.801,6.4L268.801,25.599C268.801,64.638 231.297,96.4 185.199,96.4C139.102,96.4 101.602,64.638 101.602,25.599L101.602,6.4C101.602,3.087 98.914,0.4 95.602,0.4C92.285,0.4 89.602,3.087 89.602,6.4L89.602,25.599C89.602,64.638 52.098,96.4 6,96.4C2.688,96.4 0,99.087 0,102.4C0,105.712 2.688,108.4 6,108.4C8.285,108.4 10.555,108.326 12.801,108.189L12.801,122.002L6,122.002C2.688,122.002 0,124.685 0,128.002C0,131.314 2.688,134.002 6,134.002L364.398,134.002C367.715,134.002 370.398,131.314 370.398,128.002C370.398,124.685 367.715,122.002 364.398,122.002ZM345.602,122.002L332,122.002L332,103.502C336.395,104.877 340.938,105.978 345.602,106.787L345.602,122.002ZM320,122.002L306.398,122.002L306.398,91.373C310.668,94.201 315.215,96.724 320,98.908L320,122.002ZM294.398,81.927L294.398,122.002L280.801,122.002L280.801,65.724C284.574,71.599 289.152,77.037 294.398,81.927ZM268.801,65.724L268.801,122.002L255.199,122.002L255.199,81.927C260.449,77.037 265.027,71.599 268.801,65.724ZM229.602,98.908C234.387,96.728 238.934,94.201 243.199,91.373L243.199,122.002L229.602,122.002L229.602,98.908ZM217.602,122.002L204,122.002L204,106.791C208.664,105.978 213.207,104.877 217.602,103.502L217.602,122.002ZM192,108.189L192,122.002L178.398,122.002L178.398,108.189C180.648,108.326 182.914,108.4 185.199,108.4C187.488,108.4 189.754,108.326 192,108.189ZM152.801,103.502C157.195,104.877 161.734,105.978 166.398,106.787L166.398,122.002L152.801,122.002L152.801,103.502ZM140.801,122.002L127.199,122.002L127.199,91.373C131.465,94.201 136.012,96.724 140.801,98.908L140.801,122.002ZM115.199,81.927L115.199,122.002L101.602,122.002L101.602,65.724C105.375,71.599 109.949,77.037 115.199,81.927ZM89.602,65.724L89.602,122.002L76,122.002L76,81.927C81.25,77.037 85.824,71.599 89.602,65.724ZM64,122.002L50.398,122.002L50.398,98.908C55.188,96.728 59.734,94.201 64,91.373L64,122.002ZM24.801,106.791C29.465,105.978 34.008,104.877 38.398,103.502L38.398,122.002L24.801,122.002L24.801,106.791Z" style="fill:rgb(44,47,51);fill-rule:nonzero;"/>
        <path d="M364.398,159.599C367.715,159.599 370.398,156.912 370.398,153.599C370.398,150.287 367.715,147.599 364.398,147.599L6,147.599C2.688,147.599 0,150.287 0,153.599C0,156.912 2.688,159.599 6,159.599L89.602,159.599L89.602,173.201L89.199,173.201C82.363,173.201 76.801,178.763 76.801,185.599L76.801,198.798L6,198.798C2.688,198.798 0,201.486 0,204.798C0,208.115 2.688,210.798 6,210.798L364.398,210.798C367.715,210.798 370.398,208.115 370.398,204.798C370.398,201.486 367.715,198.798 364.398,198.798L293.602,198.798L293.602,185.599C293.602,178.763 288.039,173.201 281.199,173.201L280.801,173.201L280.801,159.599L364.398,159.599ZM88.801,185.599C88.801,185.38 88.98,185.201 89.199,185.201L102,185.201C102.223,185.201 102.398,185.38 102.398,185.599L102.398,198.798L88.801,198.798L88.801,185.599ZM281.602,185.599L281.602,198.798L268,198.798L268,185.599C268,185.38 268.18,185.201 268.398,185.201L281.199,185.201C281.422,185.201 281.602,185.38 281.602,185.599ZM268.801,173.201L268.398,173.201C261.562,173.201 256,178.763 256,185.599L256,198.798L114.398,198.798L114.398,185.599C114.398,178.763 108.836,173.201 102,173.201L101.602,173.201L101.602,159.599L268.801,159.599L268.801,173.201Z" style="fill:rgb(44,47,51);fill-rule:nonzero;"/>
        <path d="M249.199,224.4L134,224.4C130.688,224.4 128,227.087 128,230.4C128,233.712 130.688,236.4 134,236.4L249.199,236.4C252.512,236.4 255.199,233.712 255.199,230.4C255.199,227.087 252.512,224.4 249.199,224.4Z" style="fill:rgb(0,173,238);fill-rule:nonzero;"/>
        <path d="M108.398,224.4L57.199,224.4C53.887,224.4 51.199,227.087 51.199,230.4C51.199,233.712 53.887,236.4 57.199,236.4L108.398,236.4C111.715,236.4 114.398,233.712 114.398,230.4C114.398,227.087 111.715,224.4 108.398,224.4Z" style="fill:rgb(0,173,238);fill-rule:nonzero;"/>
        <path d="M287.602,224.4L274.801,224.4C271.488,224.4 268.801,227.087 268.801,230.4C268.801,233.712 271.488,236.4 274.801,236.4L287.602,236.4C290.914,236.4 293.602,233.712 293.602,230.4C293.602,227.087 290.914,224.4 287.602,224.4Z" style="fill:rgb(0,173,238);fill-rule:nonzero;"/>
        <path d="M236.398,250.002L172.402,250.002C169.086,250.002 166.402,252.685 166.402,256.002C166.402,259.315 169.086,262.002 172.402,262.002L236.398,262.002C239.715,262.002 242.398,259.315 242.398,256.002C242.398,252.685 239.715,250.002 236.398,250.002Z" style="fill:rgb(0,173,238);fill-rule:nonzero;"/>
        <path d="M146.801,250.002L134,250.002C130.688,250.002 128,252.685 128,256.002C128,259.315 130.688,262.002 134,262.002L146.801,262.002C150.113,262.002 152.801,259.315 152.801,256.002C152.801,252.685 150.113,250.002 146.801,250.002Z" style="fill:rgb(0,173,238);fill-rule:nonzero;"/>
    </g>
</svg>
